<svg version="1.1" id="Layer_1" xmlns="http://www.w3.org/2000/svg" xmlns:xlink="http://www.w3.org/1999/xlink" x="0px" y="0px"
	 width="100%" viewBox="0 0 512 520" enable-background="new 0 0 512 520" xml:space="preserve">
<path fill="#FEFFFF" opacity="1.000000" stroke="none" 
	d="
M513.000000,205.000000 
	C513.000000,310.641205 513.000000,415.782379 513.000000,520.961792 
	C342.400146,520.961792 171.800262,520.961792 1.100199,520.961792 
	C1.100199,347.775482 1.100199,174.550919 1.100199,1.163165 
	C171.666534,1.163165 342.333252,1.163165 513.000000,1.163165 
	C513.000000,68.866371 513.000000,136.683182 513.000000,205.000000 
M285.942505,420.566315 
	C305.470459,448.547272 325.039246,476.500000 344.460266,504.554993 
	C346.307159,507.222870 348.228394,508.078613 351.396790,508.071777 
	C399.729431,507.967560 448.062317,508.001007 496.395172,507.990784 
	C497.838013,507.990479 499.280853,507.864136 500.711853,507.797119 
	C500.711853,342.726593 500.711853,177.993973 500.711853,13.305902 
	C446.023346,13.305902 391.622894,13.305902 337.044617,13.305902 
	C336.337891,84.293114 335.634216,154.976883 334.922455,226.472198 
	C333.819458,225.271515 333.352570,224.837097 332.971069,224.337479 
	C306.637604,189.848206 280.269562,155.385223 253.995438,120.850800 
	C227.884430,86.530754 201.828491,52.168552 175.871582,17.731987 
	C173.228134,14.224973 170.421448,12.875616 165.957565,12.891508 
	C117.125343,13.065356 68.292274,13.000588 19.459438,13.000678 
	C17.700977,13.000682 15.942516,13.000678 14.294153,13.000678 
	C14.294153,137.042206 14.294153,260.440826 14.294153,383.804321 
	C19.690870,384.902496 20.557886,380.359436 22.330900,377.572723 
	C55.893127,324.821777 89.296982,271.970093 122.865814,219.223343 
	C126.389900,213.685959 130.742279,208.675705 134.390594,203.844360 
	C184.119003,276.983673 234.233597,348.891693 285.942505,420.566315 
M195.401566,421.102997 
	C193.551758,418.336487 191.723465,415.555267 189.848740,412.805756 
	C174.200638,389.855988 158.631027,366.851715 142.812057,344.020233 
	C139.861038,339.761017 135.899139,336.202179 131.876938,331.734985 
	C92.139000,390.702728 52.967449,448.830048 13.304623,507.686340 
	C93.817612,507.686340 172.800522,507.686340 253.056305,507.686340 
	C251.236618,504.222290 250.062851,501.356079 248.361847,498.847321 
	C230.900284,473.093689 213.353241,447.398071 195.401566,421.102997 
z"/>
<path fill="#1E3033" opacity="1.000000" stroke="none" 
	d="
M285.727631,420.278503 
	C234.233597,348.891693 184.119003,276.983673 134.390594,203.844360 
	C130.742279,208.675705 126.389900,213.685959 122.865814,219.223343 
	C89.296982,271.970093 55.893127,324.821777 22.330900,377.572723 
	C20.557886,380.359436 19.690870,384.902496 14.294153,383.804321 
	C14.294153,260.440826 14.294153,137.042206 14.294153,13.000678 
	C15.942516,13.000678 17.700977,13.000682 19.459438,13.000678 
	C68.292274,13.000588 117.125343,13.065356 165.957565,12.891508 
	C170.421448,12.875616 173.228134,14.224973 175.871582,17.731987 
	C201.828491,52.168552 227.884430,86.530754 253.995438,120.850800 
	C280.269562,155.385223 306.637604,189.848206 332.971069,224.337479 
	C333.352570,224.837097 333.819458,225.271515 334.922455,226.472198 
	C335.634216,154.976883 336.337891,84.293114 337.044617,13.305902 
	C391.622894,13.305902 446.023346,13.305902 500.711853,13.305902 
	C500.711853,177.993973 500.711853,342.726593 500.711853,507.797119 
	C499.280853,507.864136 497.838013,507.990479 496.395172,507.990784 
	C448.062317,508.001007 399.729431,507.967560 351.396790,508.071777 
	C348.228394,508.078613 346.307159,507.222870 344.460266,504.554993 
	C325.039246,476.500000 305.470459,448.547272 285.727631,420.278503 
z"/>
<path fill="#1095D7" opacity="1.000000" stroke="none" 
	d="
M195.615814,421.394623 
	C213.353241,447.398071 230.900284,473.093689 248.361847,498.847321 
	C250.062851,501.356079 251.236618,504.222290 253.056305,507.686340 
	C172.800522,507.686340 93.817612,507.686340 13.304623,507.686340 
	C52.967449,448.830048 92.139000,390.702728 131.876938,331.734985 
	C135.899139,336.202179 139.861038,339.761017 142.812057,344.020233 
	C158.631027,366.851715 174.200638,389.855988 189.848740,412.805756 
	C191.723465,415.555267 193.551758,418.336487 195.615814,421.394623 
z"/>
</svg>