<?xml version="1.0" encoding="UTF-8"?>
<svg version="1.1" xmlns="http://www.w3.org/2000/svg" width="883" height="289">
<path d="M0 0 C24.5025 -0.061875 49.005 -0.12375 74.25 -0.1875 C81.95118164 -0.21481201 89.65236328 -0.24212402 97.58691406 -0.27026367 C107.08154297 -0.28381348 107.08154297 -0.28381348 111.54388428 -0.28633118 C114.62223973 -0.28909601 117.70043573 -0.30021583 120.77874756 -0.31672668 C151.68296015 -0.47511909 187.80097548 -0.38529092 212 22 C213.15048828 23.01513672 213.15048828 23.01513672 214.32421875 24.05078125 C220.04223338 29.37184279 223.84862087 34.86389831 227 42 C227.41378906 42.92941406 227.82757812 43.85882813 228.25390625 44.81640625 C233.03970375 57.60632499 233.10143915 74.31179236 228.3203125 87.1171875 C221.82578771 101.29754045 213.45038232 110.18117962 200 118 C201.03898438 118.556875 202.07796875 119.11375 203.1484375 119.6875 C220.77075615 129.26677912 234.75350219 140.38938995 241.03515625 160.27734375 C245.20216842 177.19735133 244.06218107 194.64075928 235.796875 210.1484375 C232.74844285 214.98616678 229.05232542 218.98966759 225 223 C224.40832031 223.62519531 223.81664062 224.25039062 223.20703125 224.89453125 C203.6699518 244.00032859 169.91402545 247.17786784 144.29077148 247.11352539 C142.68770634 247.11321863 141.08464105 247.11335327 139.48157597 247.11389065 C135.20990668 247.11411531 130.93826572 247.10834251 126.66660309 247.10128021 C122.65017106 247.09556214 118.63374573 247.09531584 114.61730957 247.09460449 C102.89070267 247.08936858 91.16410097 247.07540734 79.4375 247.0625 C53.223125 247.041875 27.00875 247.02125 0 247 C0 165.49 0 83.98 0 0 Z M82 60 C82 71.55 82 83.1 82 95 C88.63523119 95.09226277 95.26820084 95.17177279 101.90356445 95.21972656 C104.15657123 95.23973464 106.40952679 95.26694991 108.66235352 95.30175781 C111.91695867 95.35075342 115.17087217 95.37307756 118.42578125 95.390625 C119.41894852 95.41127014 120.41211578 95.43191528 121.43537903 95.45318604 C128.83745336 95.45551516 136.846769 94.42392097 142.75605774 89.55230713 C145.04921326 86.95199172 146.68508474 84.46406788 147 81 C147.103125 79.9275 147.20625 78.855 147.3125 77.75 C146.81031219 71.72374626 144.83847491 67.58777379 140.25 63.625 C132.90501861 59.9525093 125.99044695 59.7204465 117.9375 59.8046875 C116.90560547 59.8075174 115.87371094 59.81034729 114.81054688 59.81326294 C111.54024268 59.82438748 108.27022032 59.84947774 105 59.875 C102.77213939 59.88503978 100.54427446 59.89416388 98.31640625 59.90234375 C92.8774103 59.92259318 87.43901771 59.96175691 82 60 Z M82 151 C82 163.54 82 176.08 82 189 C89.0253149 189.04616855 96.05009315 189.08591705 103.07543945 189.10986328 C105.46022333 189.11985697 107.84499515 189.13345644 110.22973633 189.15087891 C113.67792759 189.17542119 117.1259554 189.18654976 120.57421875 189.1953125 C121.62268478 189.20563507 122.67115082 189.21595764 123.75138855 189.22659302 C139.99116313 189.23925463 139.99116313 189.23925463 154 182 C157.68494329 178.22293313 158.29579858 175.18029818 158.5 170.0625 C158.28140803 164.86772618 157.87849131 160.70085048 154 157 C147.31579436 152.68288236 141.12640869 150.86889932 133.19995117 150.88647461 C132.05914597 150.88655014 130.91834076 150.88662567 129.7429657 150.88670349 C127.91146721 150.89444542 127.91146721 150.89444542 126.04296875 150.90234375 C124.15581902 150.90446617 124.15581902 150.90446617 122.23054504 150.90663147 C118.89821471 150.91127427 115.56595368 150.92024772 112.23364258 150.93133545 C108.82829394 150.94159497 105.42293791 150.94619372 102.01757812 150.95117188 C95.34501322 150.96134037 88.6725692 150.98091734 82 151 Z " fill="#1E3033" transform="translate(292,21)"/>
<path d="M0 0 C26.07 0 52.14 0 79 0 C91.9671875 16.50369318 91.9671875 16.50369318 97.8125 24.1875 C98.48990234 25.07695313 99.16730469 25.96640625 99.86523438 26.8828125 C104.87869374 33.48316517 109.80715951 40.14234623 114.70581055 46.828125 C119.77872765 53.73666075 124.9659152 60.5546782 130.17089844 67.36401367 C136.16453739 75.20571559 142.08826338 83.09626517 148 91 C151.96 96.28 155.92 101.56 160 107 C160.33 71.69 160.66 36.38 161 0 C188.06 0 215.12 0 243 0 C243 81.51 243 163.02 243 247 C217.59 247 192.18 247 166 247 C150.21150592 224.44500846 150.21150592 224.44500846 144 215.5 C137.25975546 205.80280313 130.49518473 196.12290622 123.71777344 186.45166016 C120.8103791 182.30213572 117.90531999 178.15097694 115 174 C113.83334425 172.33332569 112.66667759 170.66665902 111.5 169 C90.5 139 90.5 139 88.74780273 136.49682617 C87.58850404 134.84070831 86.42916203 133.18462075 85.26977539 131.52856445 C82.2400115 127.20075675 79.21114317 122.87232595 76.18359375 118.54296875 C75.55646484 117.64642578 74.92933594 116.74988281 74.28320312 115.82617188 C73.09021391 114.12063915 71.89748732 112.41492267 70.70507812 110.70898438 C70.16173828 109.93232422 69.61839844 109.15566406 69.05859375 108.35546875 C68.54409668 107.6186084 68.02959961 106.88174805 67.49951172 106.12255859 C66.50892548 104.72038394 65.50549505 103.32718567 64.48876953 101.94384766 C61 97.19623113 61 97.19623113 61 95 C56.97681988 98.54601224 54.56799609 102.74796987 51.875 107.3125 C48.43335113 113.04647646 44.93773105 118.71254342 41.1875 124.25 C37.03692994 130.39069583 33.03130058 136.61535287 29.0625 142.875 C24.36083663 150.29052846 19.64146194 157.69276963 14.85205078 165.05200195 C12.67106839 168.40506859 10.51099409 171.76836284 8.390625 175.16015625 C7.97659424 175.81822266 7.56256348 176.47628906 7.13598633 177.15429688 C6.35648486 178.39540167 5.5825633 179.6400346 4.81518555 180.88867188 C3.92950563 182.293759 2.97144697 183.65278453 2 185 C1.34 185 0.68 185 0 185 C0 123.95 0 62.9 0 0 Z " fill="#1E3033" transform="translate(11,21)"/>
<path d="M0 0 C62.04 0 124.08 0 188 0 C188 21.12 188 42.24 188 64 C153.68 64 119.36 64 84 64 C84 77.53 84 91.06 84 105 C113.7 105 143.4 105 174 105 C174 126.12 174 147.24 174 169 C144.3 169 114.6 169 84 169 C84 194.74 84 220.48 84 247 C56.28 247 28.56 247 0 247 C0 165.49 0 83.98 0 0 Z " fill="#1E3033" transform="translate(684,21)"/>
<path d="M0 0 C27.72 0 55.44 0 84 0 C84 81.51 84 163.02 84 247 C56.28 247 28.56 247 0 247 C0 165.49 0 83.98 0 0 Z " fill="#1E3033" transform="translate(562,21)"/>
<path d="M0 0 C4.01075335 3.75772596 7.04680661 7.70987534 10.078125 12.28125 C10.5585022 12.99562225 11.03887939 13.70999451 11.53381348 14.4460144 C13.11103893 16.79392527 14.68043726 19.14696139 16.25 21.5 C17.35128774 23.14184161 18.45318538 24.78327427 19.55566406 26.42431641 C21.86113523 29.8571144 24.16392923 33.29168535 26.46484375 36.72753906 C31.66027484 44.48152235 36.88510383 52.21564458 42.11120605 59.94897461 C43.7215941 62.33294868 45.33020644 64.71811241 46.93847656 67.10351562 C47.93289828 68.57685291 48.92736222 70.05016169 49.921875 71.5234375 C50.36358032 72.17923798 50.80528564 72.83503845 51.26037598 73.51071167 C53.39197356 76.66556802 55.56289997 79.77375495 57.81738281 82.84228516 C60 86 60 86 60 88 C20.73 88 -18.54 88 -59 88 C-51.09793814 75.58247423 -51.09793814 75.58247423 -47.38671875 70.03515625 C-46.97258224 69.41584732 -46.55844574 68.79653839 -46.13175964 68.15846252 C-40.38198917 59.56914443 -34.5971385 51.00335268 -28.8125 42.4375 C-28.22238129 41.56335449 -27.63226257 40.68920898 -27.02426147 39.78857422 C-18.05313243 26.50040002 -9.06020229 13.22766213 0 0 Z " fill="#0D96D4" transform="translate(70,180)"/>
</svg>
